<?xml version="1.0" encoding="utf-8"?>
<!-- Generator: Adobe Illustrator 26.0.1, SVG Export Plug-In . SVG Version: 6.00 Build 0)  -->
<svg version="1.1" id="Lag_1" xmlns="http://www.w3.org/2000/svg" xmlns:xlink="http://www.w3.org/1999/xlink" x="0px" y="0px"
	 viewBox="0 0 1920 250" style="enable-background:new 0 0 1920 250;" xml:space="preserve">
<style type="text/css">
	.st0{clip-path:url(#SVGID_00000145018139984315037340000003028134752907786373_);}
	.st1{opacity:0.26;fill:#263572;}
	.st2{opacity:0.43;}
	.st3{fill:#263572;}
	.st4{fill:url(#SVGID_00000105407228650952279060000008286003655910152869_);}
	.st5{fill:#662482;}
	.st6{opacity:0.53;}
	.st7{fill:url(#SVGID_00000080164651580371691970000017621167680362344859_);}
</style>
<g>
	<defs>
		<rect id="SVGID_1_" width="1920" height="250"/>
	</defs>
	<clipPath id="SVGID_00000019674861602790138830000013201819652410583425_">
		<use xlink:href="#SVGID_1_"  style="overflow:visible;"/>
	</clipPath>
	<g style="clip-path:url(#SVGID_00000019674861602790138830000013201819652410583425_);">
		<g>
			<path class="st1" d="M-251.06,118.62c105.09,3.03,206.57-33.92,309.2-56.72c532.32-118.24,1085.46,144.8,1625.88,72.06
				c124.12-16.71,245.15-50.94,365.01-87.24c-4.79,28.75-9.58,57.51-14.38,86.26c-1.11,6.67-2.53,13.9-7.64,18.32
				c-4.69,4.05-11.34,4.71-17.52,5.17c-376.96,28.62-756.7,57.19-1132.2,13.41c-98.42-11.47-196.57-27.92-295.65-29.28
				C283.22,136.5-7.56,269.07-305,244.65"/>
		</g>
		<g class="st2">
			<path class="st3" d="M2266.45,146.17c-105.08-3.19-206.62,33.6-309.29,56.23C1424.65,319.8,871.93,55.89,331.4,127.79
				C207.25,144.3,86.17,178.34-33.75,214.45c4.84-28.75,9.68-57.49,14.51-86.24c1.12-6.67,2.55-13.9,7.67-18.3
				c4.7-4.04,11.35-4.69,17.53-5.15c377.01-28.02,756.79-56,1132.22-11.63c98.4,11.63,196.53,28.23,295.61,29.75
				c298.4,4.57,589.4-127.54,886.8-102.65"/>
		</g>
		<g>
			
				<linearGradient id="SVGID_00000085210369415029122190000012904802008659354045_" gradientUnits="userSpaceOnUse" x1="-324.011" y1="144.3754" x2="2012.3557" y2="144.3754" gradientTransform="matrix(1 -7.501477e-03 7.501477e-03 1 -0.8094 10.1699)">
				<stop  offset="0" style="stop-color:#662482"/>
				<stop  offset="0.5112" style="stop-color:#941B80"/>
				<stop  offset="1" style="stop-color:#91124C"/>
			</linearGradient>
			<path style="fill:url(#SVGID_00000085210369415029122190000012904802008659354045_);" d="M1996.63,102.04
				c-176.98,10.9-351.32-50.35-528.63-50.21c-218.33,0.17-431.79,93.28-649.09,72.1c-54.16-5.28-107.41-17.62-161.47-23.83
				C446.25,75.89,235.86,146,23.38,152.18c-108.24,3.15-216.21-10.33-323.66-23.79c-7.69,26.96-15.37,53.92-23.06,80.87
				c54.18-31.8,121.83-28.11,183.59-16.64c61.76,11.48,123.61,29.85,186.17,24.17c59.73-5.42,116.02-32.56,175.85-36.72
				c70.96-4.94,139.53,22.63,208.82,38.73c241.57,56.13,493.21-27.27,740.95-15.8c106.05,4.91,210.76,27.24,316.85,31.15
				c177.32,6.53,352.03-38.43,523.77-83.05"/>
		</g>
		<g class="st2">
			<path class="st5" d="M2970.37,195.06c-274.01,31.7-546.91-65.08-822.82-64.74c-141.69,0.17-283.98,25.97-424.37,7.63
				c-81.79-10.69-160.89-36.16-242.57-47.61c-96.78-13.57-196.52-7.04-290.61,19c-136.11,37.68-261.51,115.72-402.58,126.54
				c-191.13,14.65-373.79-96.99-565.19-86.19c-175.55,9.9-347.46,121.99-515.93,73.28c-9.27-58.61-18.53-117.23-27.8-175.84
				c146.12,21.19,296.01,42.3,440.6,12.5c89.19-18.38,177.51-56.08,267.85-44.37c100.31,12.99,185.7,85.4,286.65,92.37
				c107.29,7.4,206.69-60.57,314.22-63.76c115.52-3.42,217.22,66.9,323.32,111.25c157.94,66.02,340.32,75.36,504.7,25.85
				c109.27-32.91,208.9-90.16,314.72-132.39c273.59-109.17,589.93-113.17,866.07-10.93c13.4,4.96,27.82,11.12,34.27,23.55
				c5.86,11.29,3.54,24.84,0.34,37.1c-10.85,41.52-30.49,80.86-57.34,114.87"/>
		</g>
		<g class="st6">
			
				<linearGradient id="SVGID_00000162342502065286902020000011212515999084124077_" gradientUnits="userSpaceOnUse" x1="-262.8601" y1="-824.6686" x2="1941.9368" y2="-824.6686" gradientTransform="matrix(-0.9998 -0.0188 0.0228 -1.2135 1756.9011 -846.7937)">
				<stop  offset="0" style="stop-color:#ED754B"/>
				<stop  offset="0.4899" style="stop-color:#D70563"/>
				<stop  offset="1" style="stop-color:#91124C"/>
			</linearGradient>
			<path style="fill:url(#SVGID_00000162342502065286902020000011212515999084124077_);" d="M1933.89,172.94
				c-117.44,49.36-245.56,43.05-368.07,20.78s-243.16-59.88-366.73-71.55c-233.52-22.05-465.71,49.13-695.99,104.06
				C450.17,238.85,396.4,250.7,342.69,246c-74.3-6.5-143.79-44.11-215.69-67.27c-94.34-30.39-194.23-35.81-290.74-15.78
				c-7.37,1.53-15.48,3.06-21.87-1.6c-6.42-4.68-9.09-14.17-10.89-23c-8.75-42.76-8.23-88.34,1.49-130.96
				c90.69,66.86,204.04,68.3,310.02,55.08s212.9-39.08,318.03-19.7c82.67,15.24,160.04,57.87,233.41,106.12
				c59.64,39.22,122.9,83.95,190.58,74.83c78.45-10.58,138.31-90.16,212.32-123.91c39.78-18.14,82.73-22.56,125.09-25.03
				c89.8-5.24,179.87-2.45,269.23,8.34c98.21,11.86,197.48,33.33,295,13.38c73.28-14.99,143.45-53.1,217.64-56.81
				c7.93-0.4,16.95,0.16,22.1,7.44c4.61,6.5,4.44,16.04,4.03,24.63c-1.48,30.98-2.96,61.97-4.44,92.95"/>
		</g>
	</g>
</g>
</svg>
