<svg id="visual" viewBox="0 0 900 200" width="900" height="200" xmlns="http://www.w3.org/2000/svg" xmlns:xlink="http://www.w3.org/1999/xlink" version="1.1">
<path d="M0 86L21.5 87C43 88 86 90 128.8 86.8C171.7 83.7 214.3 75.3 257.2 67.3C300 59.3 343 51.7 385.8 53.7C428.7 55.7 471.3 67.3 514.2 69.7C557 72 600 65 642.8 64.7C685.7 64.3 728.3 70.7 771.2 67.7C814 64.7 857 52.3 878.5 46.2L900 40L900 201L878.5 201C857 201 814 201 771.2 201C728.3 201 685.7 201 642.8 201C600 201 557 201 514.2 201C471.3 201 428.7 201 385.8 201C343 201 300 201 257.2 201C214.3 201 171.7 201 128.8 201C86 201 43 201 21.5 201L0 201Z" fill="#57009b"></path>
<path d="M0 108L21.5 106.2C43 104.3 86 100.7 128.8 102C171.7 103.3 214.3 109.7 257.2 113.7C300 117.7 343 119.3 385.8 117.3C428.7 115.3 471.3 109.7 514.2 108.5C557 107.3 600 110.7 642.8 108.3C685.7 106 728.3 98 771.2 92.7C814 87.3 857 84.7 878.5 83.3L900 82L900 201L878.5 201C857 201 814 201 771.2 201C728.3 201 685.7 201 642.8 201C600 201 557 201 514.2 201C471.3 201 428.7 201 385.8 201C343 201 300 201 257.2 201C214.3 201 171.7 201 128.8 201C86 201 43 201 21.5 201L0 201Z" fill="#1b2079"></path>
<path d="M0 117L21.5 118.7C43 120.3 86 123.7 128.8 123.8C171.7 124 214.3 121 257.2 121.8C300 122.7 343 127.3 385.8 127C428.7 126.7 471.3 121.3 514.2 123C557 124.7 600 133.3 642.8 139.5C685.7 145.7 728.3 149.3 771.2 149.7C814 150 857 147 878.5 145.5L900 144L900 201L878.5 201C857 201 814 201 771.2 201C728.3 201 685.7 201 642.8 201C600 201 557 201 514.2 201C471.3 201 428.7 201 385.8 201C343 201 300 201 257.2 201C214.3 201 171.7 201 128.8 201C86 201 43 201 21.5 201L0 201Z" fill="#001d4e"></path>
<path d="M0 153L21.5 152C43 151 86 149 128.8 150.2C171.7 151.3 214.3 155.7 257.2 155.8C300 156 343 152 385.8 151.2C428.7 150.3 471.3 152.7 514.2 155.8C557 159 600 163 642.8 161.3C685.7 159.7 728.3 152.3 771.2 150.8C814 149.3 857 153.7 878.5 155.8L900 158L900 201L878.5 201C857 201 814 201 771.2 201C728.3 201 685.7 201 642.8 201C600 201 557 201 514.2 201C471.3 201 428.7 201 385.8 201C343 201 300 201 257.2 201C214.3 201 171.7 201 128.8 201C86 201 43 201 21.5 201L0 201Z" fill="#0c1320"></path>
</svg>